IKResults
version=1
nRows=4
nColumns=63
inDegrees=yes

Units are S.I. units (second, meters, Newtons, ...)
If the header above contains a line with 'inDegrees', this indicates whether rotational values are in degrees (yes) or radians (no).

endheader
time	pelvis_tilt	pelvis_list	pelvis_rotation	pelvis_tx	pelvis_ty	pelvis_tz	hip_flexion_r	hip_adduction_r	hip_rotation_r	knee_angle_r	knee_angle_r_beta	ankle_angle_r	subtalar_angle_r	mtp_angle_r	hip_flexion_l	hip_adduction_l	hip_rotation_l	knee_angle_l	knee_angle_l_beta	ankle_angle_l	subtalar_angle_l	mtp_angle_l	L5_S1_Flex_Ext	L5_S1_Lat_Bending	L5_S1_axial_rotation	L4_L5_Flex_Ext	L4_L5_Lat_Bending	L4_L5_axial_rotation	L3_L4_Flex_Ext	L3_L4_Lat_Bending	L3_L4_axial_rotation	L2_L3_Flex_Ext	L2_L3_Lat_Bending	L2_L3_axial_rotation	L1_L2_Flex_Ext	L1_L2_Lat_Bending	L1_L2_axial_rotation	L1_T12_Flex_Ext	L1_T12_Lat_Bending	L1_T12_axial_rotation	Abs_r3	Abs_r2	Abs_r1	Abs_t1	Abs_t2	neck_flexion	neck_bending	neck_rotation	arm_flex_r	arm_add_r	arm_rot_r	elbow_flex_r	pro_sup_r	wrist_flex_r	wrist_dev_r	arm_flex_l	arm_add_l	arm_rot_l	elbow_flex_l	pro_sup_l	wrist_flex_l	wrist_dev_l
      4.03333333	    -18.82579115	     -2.16160043	      1.04228042	     -0.57059288	      0.95400437	     -0.29820374	     22.04332066	     -1.11032783	      4.08290152	     30.57705757	      0.53367033	      9.66953879	    -12.34337422	      0.00000000	     18.84735701	     -6.20978902	     -6.68813277	     28.35857232	      0.49495046	      8.06045092	    -15.58201324	      0.00000000	      3.66129594	      0.26303588	     -0.66306097	      6.79939269	      0.34983772	     -0.70450229	      6.01514310	      0.63954544	     -0.70450229	      4.18449513	      0.63954544	     -0.58017835	      3.39987941	      0.53638277	     -0.53873704	      2.09206450	      0.40744258	     -0.49729573	     26.15227078	      2.97551449	     -3.68774622	      0.00000000	      0.00000000	      3.97152560	     -5.15718527	     -1.17092388	    -35.14478861	    -18.82056626	      3.79471631	     65.25077283	     89.99559364	      0.00000000	      0.00000000	    -16.78993313	    -18.30717214	      3.94167906	     92.98344870	     89.99559364	      0.00000000	      0.00000000
      4.06666667	    -21.99030687	     -0.46130470	      0.76376258	     -0.56814678	      0.94929885	     -0.29056230	     23.36304321	     -2.36674511	      4.15350253	     27.46767372	      0.47940134	     10.10225108	    -11.48238589	      0.00000000	     25.03395496	     -5.37717789	     -6.49165196	     33.44257667	      0.58368307	      9.13774913	    -16.20993270	      0.00000000	      4.25975218	      0.02485506	     -0.36649769	      7.91078577	      0.03305722	     -0.38940379	      6.99834685	      0.06043258	     -0.38940379	      4.86847077	      0.06043258	     -0.32068548	      3.95560587	      0.05068443	     -0.29777937	      2.43402239	      0.03850048	     -0.27487327	     30.42698384	      0.28116537	     -2.03835019	      0.00000000	      0.00000000	      2.57571522	     -3.58786227	     -2.83510839	    -33.27240414	    -17.88079969	      5.79925986	     68.23624266	     89.99559364	      0.00000000	      0.00000000	    -23.72464718	    -19.25469314	      2.96068455	     93.10077787	     89.99559364	      0.00000000	      0.00000000
      4.10000000	    -24.08634363	      1.07839024	      0.87720299	     -0.56843225	      0.94522014	     -0.28378440	     24.04458695	     -3.56277281	      3.98707331	     24.94196740	      0.43531945	     10.91854358	    -10.67027727	      0.00000000	     30.75506555	     -4.68304968	     -6.10723225	     39.17637328	      0.68375670	     11.00686094	    -16.45196908	      0.00000000	      4.60716854	     -0.22448848	     -0.06249620	      8.55597269	     -0.29856968	     -0.06640221	      7.56911719	     -0.54582130	     -0.06640221	      5.26553292	     -0.54582130	     -0.05468418	      4.27821670	     -0.45777692	     -0.05077816	      2.63253610	     -0.34773266	     -0.04687215	     32.90854414	     -2.53945863	     -0.34758512	      0.00000000	      0.00000000	      1.88481985	     -2.00609554	     -5.47253038	    -30.33953797	    -16.75560105	      7.68888414	     71.06145766	     89.99559364	      0.00000000	      0.00000000	    -30.11121741	    -20.09463602	      1.62734516	     92.19429980	     89.99559364	      0.00000000	      0.00000000
      4.13333333	    -26.14095303	      2.08204112	      1.33177305	     -0.57064050	      0.94094737	     -0.27871634	     25.06356666	     -4.41601201	      3.55528701	     22.91449217	      0.39993333	     11.70462423	     -9.90197917	      0.00000000	     36.75061214	     -4.22492254	     -5.33287045	     44.96763679	      0.78483332	     13.17640672	    -16.63653670	      0.00000000	      4.90370193	     -0.43338143	      0.24519944	      9.10666485	     -0.57639730	      0.26052440	      8.05629190	     -1.05372360	      0.26052440	      5.60444093	     -1.05372360	      0.21454951	      4.55357761	     -0.88375140	      0.19922454	      2.80197528	     -0.67130783	      0.18389958	     35.02665250	     -4.90249737	      1.36372570	      0.00000000	      0.00000000	      1.65557111	     -0.40082491	     -8.26478857	    -27.65599334	    -15.44236895	      8.16603611	     74.21307147	     89.99559364	      0.00000000	      0.00000000	    -35.98277700	    -20.69727266	      0.21688651	     90.41166139	     89.99559364	      0.00000000	      0.00000000
